<svg xmlns="http://www.w3.org/2000/svg" version="1.1" xmlns:xlink="http://www.w3.org/1999/xlink" xmlns:svgjs="http://svgjs.dev/svgjs" width="1000" height="1000" viewBox="0 0 1000 1000"><rect width="1000" height="1000" fill="#ffffff"></rect><g transform="matrix(0.7,0,0,0.7,149.5757575757575,378.8224333599252)"><svg viewBox="0 0 396 137" data-background-color="#ffffff" preserveAspectRatio="xMidYMid meet" height="345" width="1000" xmlns="http://www.w3.org/2000/svg" xmlns:xlink="http://www.w3.org/1999/xlink"><g id="tight-bounds" transform="matrix(1,0,0,1,0.24000000000003752,0.2425533320507327)"><svg viewBox="0 0 395.5199999999999 136.51489333589856" height="136.51489333589856" width="395.5199999999999"><g><svg viewBox="0 0 634.8156716318558 219.10849944574136" height="136.51489333589856" width="395.5199999999999"><g transform="matrix(1,0,0,1,239.29567163185584,30.281999561603925)"><svg viewBox="0 0 395.52 158.5445003225335" height="158.5445003225335" width="395.52"><g><svg viewBox="0 0 395.52 158.5445003225335" height="158.5445003225335" width="395.52"><g><svg viewBox="0 0 395.52 85.51132764920828" height="85.51132764920828" width="395.52"><g transform="matrix(1,0,0,1,0,0)"><svg width="395.52" viewBox="3.25 -35.349998474121094 164.19000244140625 35.5" height="85.51132764920828" data-palette-color="#f8f6f6"><path d="M14.85-10.9L14.85-10.9 10.95-10.9 10.95 0 3.25 0 3.25-33.7 14.85-33.7Q20.45-33.7 23.93-30.55 27.4-27.4 27.4-22.55L27.4-22.55Q27.4-17 23.78-13.95 20.15-10.9 14.85-10.9ZM13.95-27.55L13.95-27.55 10.95-27.55 10.95-17 13.5-17Q19.6-17 19.6-22.55L19.6-22.55Q19.6-27.55 13.95-27.55ZM54.4-16.15L54.4 0 47.1 0 47.1-15Q47.1-17.2 46-18.45 44.9-19.7 43.15-19.7L43.15-19.7Q42.4-19.7 41.72-19.48 41.05-19.25 40.25-18.68 39.45-18.1 38.95-16.73 38.45-15.35 38.45-13.4L38.45-13.4 38.45 0 31.15 0 31.15-35.35 38.45-35.35 38.45-21.05Q40.4-25.6 46.05-25.6L46.05-25.6Q49.75-25.6 52.07-23.25 54.4-20.9 54.4-16.15L54.4-16.15ZM69.45-5L69.45-5Q71-5 71.84-5.95 72.7-6.9 72.7-8.55L72.7-8.55 72.7-10.4 70.34-10.4Q68.5-10.4 67.5-9.6 66.5-8.8 66.5-7.55L66.5-7.55Q66.5-5 69.45-5ZM73.05 0L73.05-3.1Q71.45 0.15 66.75 0.15L66.75 0.15Q63.05 0.15 60.97-1.95 58.9-4.05 58.9-7.2L58.9-7.2Q58.9-10.85 61.57-12.88 64.25-14.9 69.5-14.9L69.5-14.9 72.7-14.9 72.7-16.65Q72.7-19.85 68.45-19.85L68.45-19.85Q64.34-19.85 60.85-17.55L60.85-17.55 60.85-24.1Q63.85-25.8 69.5-25.8L69.5-25.8Q74.9-25.8 77.55-23.48 80.2-21.15 80.2-16.25L80.2-16.25 80.2 0 73.05 0ZM93.19-12.65L93.19 0 85.89 0 85.94-25.35 93.19-25.35 93.19-20.65Q93.89-22.85 95.52-24.18 97.14-25.5 99.29-25.5L99.29-25.5Q100.49-25.5 101.19-25.3L101.19-25.3 101.19-18.4Q99.99-18.95 98.44-18.95L98.44-18.95Q96.09-18.95 94.64-17.23 93.19-15.5 93.19-12.65L93.19-12.65ZM141.64-16.25L141.64 0 134.34 0 134.34-15.05Q134.34-17.2 133.49-18.45 132.64-19.7 131.04-19.7L131.04-19.7Q129.34-19.7 128.02-18.32 126.69-16.95 126.69-13.4L126.69-13.4 126.69 0 119.39 0 119.39-15.05Q119.39-17.2 118.54-18.45 117.69-19.7 116.09-19.7L116.09-19.7Q114.39-19.7 113.07-18.32 111.74-16.95 111.74-13.4L111.74-13.4 111.74 0 104.44 0 104.44-25.35 111.74-25.35 111.74-21.4Q113.84-25.6 118.89-25.6L118.89-25.6Q124.24-25.6 125.99-20.8L125.99-20.8Q126.84-23.05 128.84-24.33 130.84-25.6 133.54-25.6L133.54-25.6Q137.29-25.6 139.47-23.23 141.64-20.85 141.64-16.25L141.64-16.25ZM156.69-5L156.69-5Q158.24-5 159.09-5.95 159.94-6.9 159.94-8.55L159.94-8.55 159.94-10.4 157.59-10.4Q155.74-10.4 154.74-9.6 153.74-8.8 153.74-7.55L153.74-7.55Q153.74-5 156.69-5ZM160.29 0L160.29-3.1Q158.69 0.15 153.99 0.15L153.99 0.15Q150.29 0.15 148.21-1.95 146.14-4.05 146.14-7.2L146.14-7.2Q146.14-10.85 148.81-12.88 151.49-14.9 156.74-14.9L156.74-14.9 159.94-14.9 159.94-16.65Q159.94-19.85 155.69-19.85L155.69-19.85Q151.59-19.85 148.09-17.55L148.09-17.55 148.09-24.1Q151.09-25.8 156.74-25.8L156.74-25.8Q162.14-25.8 164.79-23.48 167.44-21.15 167.44-16.25L167.44-16.25 167.44 0 160.29 0Z" opacity="1" transform="matrix(1,0,0,1,0,0)" fill="#000000" class="undefined-text-0" data-fill-palette-color="primary" id="text-0"></path></svg></g></svg></g><g transform="matrix(1,0,0,1,0,105.69849983532278)"><svg viewBox="0 0 140.90358309753586 52.846000487210716" height="52.846000487210716" width="140.90358309753586"><g transform="matrix(1,0,0,1,0,0)"><svg width="140.90358309753586" viewBox="0.3500000238418579 -35.5 123.04000091552734 46.150001525878906" height="52.846000487210716" data-palette-color="#f9f7f7"><path d="M0.35-35.5L3.35-35.5 15.75-19.4 28.1-35.5 31.05-35.5 17.15-17.5 30.65 0 27.7 0 15.75-15.6 3.75 0 0.75 0 14.25-17.5 0.35-35.5ZM47.7 0.5L47.7 0.5Q44.35 0.5 41.72-1.28 39.1-3.05 37.5-5.6L37.5-5.6 37.5 10.65 35 10.65 35-26 37.3-26 37.3-20.8Q38.9-23.3 41.55-24.88 44.2-26.45 47.15-26.45L47.15-26.45Q49.9-26.45 52.15-25.33 54.4-24.2 56.07-22.28 57.75-20.35 58.67-17.95 59.6-15.55 59.6-12.95L59.6-12.95Q59.6-9.35 58.1-6.28 56.6-3.2 53.92-1.35 51.25 0.5 47.7 0.5ZM47.1-1.75L47.1-1.75Q49.4-1.75 51.22-2.7 53.05-3.65 54.35-5.25 55.65-6.85 56.35-8.85 57.05-10.85 57.05-12.95L57.05-12.95Q57.05-15.2 56.25-17.23 55.45-19.25 54.02-20.8 52.6-22.35 50.72-23.28 48.85-24.2 46.65-24.2L46.65-24.2Q45.3-24.2 43.77-23.65 42.25-23.1 40.87-22.1 39.5-21.1 38.6-19.83 37.7-18.55 37.5-17.2L37.5-17.2 37.5-8.65Q38.4-6.75 39.82-5.18 41.25-3.6 43.15-2.68 45.05-1.75 47.1-1.75ZM76.65 0.5L76.65 0.5Q73.9 0.5 71.55-0.58 69.2-1.65 67.47-3.53 65.75-5.4 64.77-7.88 63.8-10.35 63.8-13.1L63.8-13.1Q63.8-16.8 65.45-19.8 67.1-22.8 70-24.63 72.9-26.45 76.5-26.45L76.5-26.45Q80.2-26.45 83.05-24.6 85.9-22.75 87.57-19.73 89.25-16.7 89.25-13.1L89.25-13.1Q89.25-12.8 89.25-12.5 89.25-12.2 89.2-12L89.2-12 66.4-12Q66.6-9.05 68.05-6.65 69.5-4.25 71.77-2.88 74.05-1.5 76.75-1.5L76.75-1.5Q79.45-1.5 81.85-2.9 84.25-4.3 85.2-6.5L85.2-6.5 87.4-5.9Q86.65-4.05 85.02-2.6 83.4-1.15 81.22-0.33 79.05 0.5 76.65 0.5ZM66.3-13.95L66.3-13.95 86.85-13.95Q86.65-17 85.25-19.35 83.85-21.7 81.57-23.05 79.3-24.4 76.55-24.4L76.55-24.4Q73.8-24.4 71.55-23.05 69.3-21.7 67.9-19.35 66.5-17 66.3-13.95ZM107.04-26.1L107.04-23.75Q103.54-23.65 100.92-21.68 98.29-19.7 97.24-16.25L97.24-16.25 97.24 0 94.74 0 94.74-26 97.14-26 97.14-19.6Q98.49-22.35 100.74-24.08 102.99-25.8 105.49-26.05L105.49-26.05Q105.99-26.1 106.39-26.1 106.79-26.1 107.04-26.1L107.04-26.1ZM122.64-3.25L123.39-1.25Q123.14-1.15 122.39-0.75 121.64-0.35 120.49-0.03 119.34 0.3 117.94 0.3L117.94 0.3Q116.59 0.3 115.42-0.23 114.24-0.75 113.54-1.8 112.84-2.85 112.84-4.35L112.84-4.35 112.84-23.95 109.19-23.95 109.19-26 112.84-26 112.84-34.9 115.34-34.9 115.34-26 121.39-26 121.39-23.95 115.34-23.95 115.34-4.95Q115.44-3.5 116.39-2.78 117.34-2.05 118.59-2.05L118.59-2.05Q120.14-2.05 121.29-2.58 122.44-3.1 122.64-3.25L122.64-3.25Z" opacity="1" transform="matrix(1,0,0,1,0,0)" fill="#000000" class="undefined-text-1" data-fill-palette-color="secondary" id="text-1"></path></svg></g></svg></g></svg></g></svg></g><g><svg viewBox="0 0 219.10849944574136 219.10849944574136" height="219.10849944574136" width="219.10849944574136"><g><svg xmlns="http://www.w3.org/2000/svg" xmlns:xlink="http://www.w3.org/1999/xlink" version="1.0" x="0" y="0" viewBox="1 1 48 48" enable-background="new 0 0 50 50" xml:space="preserve" height="219.10849944574136" width="219.10849944574136" class="icon-icon-0" data-fill-palette-color="accent" id="icon-0"><g fill="#fcf9fa" data-fill-palette-color="accent"><g fill="#fcf9fa" data-fill-palette-color="accent"><rect x="1" y="1" fill="#000000" width="23" height="5" data-fill-palette-color="accent"></rect><rect x="1" y="10" fill="#000000" width="23" height="5" data-fill-palette-color="accent"></rect><rect x="1" y="19" fill="#000000" width="23" height="5" data-fill-palette-color="accent"></rect></g><g fill="#fcf9fa" data-fill-palette-color="accent"><rect x="26" y="26" fill="#000000" width="23" height="5" data-fill-palette-color="accent"></rect><rect x="26" y="35" fill="#000000" width="23" height="5" data-fill-palette-color="accent"></rect><rect x="26" y="44" fill="#000000" width="23" height="5" data-fill-palette-color="accent"></rect></g><g fill="#fcf9fa" data-fill-palette-color="accent"><rect x="19" y="26" fill="#000000" width="5" height="23" data-fill-palette-color="accent"></rect><rect x="10" y="26" fill="#000000" width="5" height="23" data-fill-palette-color="accent"></rect><rect x="1" y="26" fill="#000000" width="5" height="23" data-fill-palette-color="accent"></rect></g><g fill="#fcf9fa" data-fill-palette-color="accent"><rect x="44" y="1" fill="#000000" width="5" height="23" data-fill-palette-color="accent"></rect><rect x="35" y="1" fill="#000000" width="5" height="23" data-fill-palette-color="accent"></rect><rect x="26" y="1" fill="#000000" width="5" height="23" data-fill-palette-color="accent"></rect></g></g></svg></g></svg></g></svg></g><defs></defs></svg><rect width="395.5199999999999" height="136.51489333589856" fill="none" stroke="none" visibility="hidden"></rect></g></svg></g></svg>