<svg xmlns="http://www.w3.org/2000/svg" viewBox="0 0 200 172.33"><defs><style>.cls-1{fill:#5614f7;}.cls-2{fill:#f9124e;}.cls-3{fill:none;stroke:#000;stroke-miterlimit:10;stroke-width:2px;}</style></defs><title>ambala</title><g id="ambala"><polygon class="cls-1" points="176.25 118.49 176.25 125.49 171.41 125.49 171.41 165.91 24.08 165.91 24.08 125.49 19.25 125.49 19.25 118.49 24.08 118.49 63.12 100.07 63.12 94.74 70.26 86.91 70.26 64.57 66.69 64.57 66.69 59.91 77.41 59.91 77.41 55.32 72.91 55.32 72.91 48.82 77.41 48.82 77.41 17.57 118.08 17.57 118.08 48.82 122.58 48.82 122.58 55.32 118.08 55.32 118.08 59.91 128.8 59.91 128.8 64.57 125.23 64.57 125.23 86.91 132.38 94.74 132.38 100.07 171.41 118.49 176.25 118.49"/><polygon class="cls-2" points="178.5 117.24 178.5 124.24 173.66 124.24 173.66 164.66 26.33 164.66 26.33 124.24 21.5 124.24 21.5 117.24 26.33 117.24 65.37 98.82 65.37 93.49 72.51 85.66 72.51 63.32 68.94 63.32 68.94 58.66 79.66 58.66 79.66 54.07 75.16 54.07 75.16 47.57 79.66 47.57 79.66 16.32 120.33 16.32 120.33 47.57 124.83 47.57 124.83 54.07 120.33 54.07 120.33 58.66 131.05 58.66 131.05 63.32 127.48 63.32 127.48 85.66 134.63 93.49 134.63 98.82 173.66 117.24 178.5 117.24"/><rect class="cls-3" x="76.18" y="18.57" width="40.67" height="31.25"/><rect class="cls-3" x="76.18" y="56.32" width="40.67" height="110.59"/><path class="cls-3" d="M96.52,124.57h0a11.83,11.83,0,0,1,11.83,11.83v30.5a0,0,0,0,1,0,0H84.68a0,0,0,0,1,0,0v-30.5a11.83,11.83,0,0,1,11.83-11.83Z"/><rect class="cls-3" x="76.18" y="112.99" width="40.67" height="6.5"/><rect class="cls-3" x="76.18" y="86.24" width="40.67" height="6.5"/><rect class="cls-3" x="71.68" y="49.82" width="49.67" height="6.5"/><circle class="cls-3" cx="96.52" cy="102.91" r="5.58"/><line class="cls-3" x1="96.52" y1="18.57" x2="96.52" y2="6.24"/><line class="cls-3" x1="92.35" y1="9.91" x2="100.68" y2="9.91"/><rect class="cls-3" x="116.85" y="65.57" width="7.15" height="101.33"/><polygon class="cls-3" points="131.15 166.91 124 166.91 124 87.91 131.15 95.74 131.15 166.91"/><polygon class="cls-3" points="170.18 166.91 131.15 166.91 131.15 108.49 170.18 126.49 170.18 166.91"/><path class="cls-3" d="M149,133.24h1.89a7.33,7.33,0,0,1,7.33,7.33v26.33a0,0,0,0,1,0,0H141.68a0,0,0,0,1,0,0V140.57A7.33,7.33,0,0,1,149,133.24Z"/><polyline class="cls-3" points="170.18 126.49 175.02 126.49 175.02 119.49 170.18 119.49 131.15 101.07"/><rect class="cls-3" x="116.85" y="60.91" width="10.72" height="4.67"/><rect class="cls-3" x="69.03" y="65.57" width="7.15" height="101.33" transform="translate(145.22 232.48) rotate(-180)"/><polygon class="cls-3" points="61.89 166.91 69.03 166.91 69.03 87.91 61.89 95.74 61.89 166.91"/><polygon class="cls-3" points="22.85 166.91 61.89 166.91 61.89 108.49 22.85 126.49 22.85 166.91"/><path class="cls-3" d="M34.8,133.24H51.35a0,0,0,0,1,0,0v26.33A7.33,7.33,0,0,1,44,166.91H42.13a7.33,7.33,0,0,1-7.33-7.33V133.24A0,0,0,0,1,34.8,133.24Z" transform="translate(86.15 300.15) rotate(-180)"/><polyline class="cls-3" points="22.85 126.49 18.02 126.49 18.02 119.49 22.85 119.49 61.89 101.07"/><rect class="cls-3" x="65.46" y="60.91" width="10.72" height="4.67" transform="translate(141.64 126.48) rotate(-180)"/><path class="cls-3" d="M102.1,81.35H90.93V66.79c0-3.08,5.58-5.58,5.58-5.58h0s5.58,2.5,5.58,5.58Z"/><path class="cls-3" d="M92.1,44.27H80.93V29.71c0-3.08,5.58-5.58,5.58-5.58h0s5.58,2.5,5.58,5.58Z"/><path class="cls-3" d="M112.1,44.27H100.93V29.71c0-3.08,5.58-5.58,5.58-5.58h0s5.58,2.5,5.58,5.58Z"/></g></svg>