<svg xmlns="http://www.w3.org/2000/svg" viewBox="0 0 174.24 153.33"><defs><style>.cls-1{fill:#7a6a77;}.cls-2{fill:#ffe9cf;}.cls-3,.cls-4,.cls-5,.cls-6{fill:none;stroke:#000;stroke-width:2px;}.cls-3,.cls-4{stroke-miterlimit:10;}.cls-4,.cls-6{stroke-linecap:round;}.cls-5,.cls-6{stroke-linejoin:round;}</style></defs><title>bengaluru</title><g id="bengaluru"><path class="cls-1" d="M93.12,15.92v5.72H80.53V15.92h2.72v-5.3a3.51,3.51,0,0,1,7,0v5.3Z"/><path class="cls-1" d="M31.34,42.8l0-.05H31.3l0,.05"/><path class="cls-1" d="M68.08,48.12V43a14.74,14.74,0,0,1-1.88-7c0-4.71,2.66-10.7,14.33-14.31H93.12c21.47,6.65,12.45,21.05,12.45,21.05l-.27.27v5.15h5l-5,6.79H68.08l-5-6.79Z"/><path class="cls-1" d="M156.81,72.51v76.14H16.28V72.51H19V62.57h0s-4.59-8.8,3-12.38c2.7-1.26,6.27-2.85,9.33-7.38,3.07,4.53,6.64,6.12,9.33,7.38,7.59,3.58,3,12.38,3,12.38h.08v7.22h.58a2,2,0,0,1,2,2v.71l16.74-.07,5-6.8V54.91h37.21V65.64l5,6.8,17,.07V71.8a2,2,0,0,1,2-2h.76V62.57s-4.58-8.8,3-12.38c2.7-1.26,6.28-2.85,9.34-7.38,3.07,4.53,6.64,6.12,9.33,7.38,7.58,3.58,3,12.38,3,12.38h.07v9.94Z"/><path class="cls-2" d="M96.37,13.63v5.72H83.78V13.63h2.72V8.33a3.51,3.51,0,0,1,7,0v5.3Z"/><path class="cls-2" d="M34.59,40.51l0-.05h-.07l0,.05"/><path class="cls-2" d="M71.33,45.83V40.67a14.74,14.74,0,0,1-1.88-7c0-4.71,2.66-10.7,14.33-14.31H96.37C117.84,26,108.82,40.4,108.82,40.4l-.27.27v5.15h5l-5,6.79H71.33l-5-6.79Z"/><path class="cls-2" d="M160.06,70.22v76.14H19.53V70.22h2.71V60.28h0s-4.59-8.8,3-12.38c2.7-1.26,6.27-2.85,9.33-7.38,3.07,4.53,6.64,6.12,9.33,7.38,7.59,3.58,3,12.38,3,12.38H47V67.5h.58a2,2,0,0,1,2,2v.71l16.74-.07,5-6.8V52.62h37.21V63.35l5,6.8,17,.07v-.71a2,2,0,0,1,2-2h.76V60.28s-4.58-8.8,3-12.38c2.7-1.26,6.28-2.85,9.34-7.38,3.07,4.53,6.64,6.12,9.33,7.38,7.58,3.58,3,12.38,3,12.38h.07v9.94Z"/><polygon class="cls-3" points="143.55 84.61 26.2 84.61 33.36 77.74 136.68 77.74 143.55 84.61"/><path class="cls-3" d="M137.4,84.61v4.72a2.58,2.58,0,0,1-2.58,2.58H34.07a2.58,2.58,0,0,1-2.58-2.58V84.61Z"/><rect class="cls-3" x="36.08" y="91.91" width="8.16" height="54.53"/><rect class="cls-3" x="125.23" y="91.91" width="8.16" height="54.53"/><rect class="cls-3" x="44.24" y="91.91" width="7.87" height="10.59"/><rect class="cls-3" x="60.26" y="91.91" width="7.87" height="10.59"/><rect class="cls-3" x="76.29" y="91.91" width="16.6" height="10.59"/><rect class="cls-3" x="101.05" y="91.91" width="8.02" height="10.59"/><rect class="cls-3" x="117.22" y="91.91" width="8.01" height="10.59"/><rect class="cls-3" x="44.24" y="114.8" width="7.87" height="9.66"/><rect class="cls-3" x="60.26" y="114.8" width="7.87" height="9.66"/><rect class="cls-3" x="76.29" y="114.8" width="16.6" height="9.66"/><rect class="cls-3" x="101.05" y="114.8" width="8.02" height="9.66"/><rect class="cls-3" x="117.22" y="114.8" width="8.01" height="9.66"/><rect class="cls-3" x="52.1" y="91.91" width="8.16" height="54.53"/><path class="cls-3" d="M133.39,70.3v7.44h-8.16V70.3H93.56l.05,6.44H76.29l0-6.44h-32v7.44H36.08V70.3H14.18v76.14H52.1V91.91h8.16v54.53h7.87V91.91h8.16v54.53h16.6V91.91H101v54.53h8V91.91h8.16v54.53h37.49V70.3Z"/><rect class="cls-3" x="109.07" y="91.91" width="8.16" height="54.53"/><rect class="cls-3" x="92.89" y="91.91" width="8.16" height="54.53"/><rect class="cls-3" x="68.13" y="91.91" width="8.16" height="54.53"/><circle class="cls-3" cx="25.49" cy="101.07" r="3.58"/><path class="cls-3" d="M21.91,111.8h7.16a0,0,0,0,1,0,0v13.62a1.83,1.83,0,0,1-1.83,1.83H23.74a1.83,1.83,0,0,1-1.83-1.83V111.8A0,0,0,0,1,21.91,111.8Z"/><line class="cls-4" x1="18.92" y1="111.8" x2="31.32" y2="111.8"/><rect class="cls-4" x="21.91" y="134.48" width="7.16" height="4.56" rx="1.57" ry="1.57"/><circle class="cls-3" cx="143.92" cy="101.07" r="3.58"/><path class="cls-3" d="M140.34,111.8h7.16a0,0,0,0,1,0,0v13.62a1.83,1.83,0,0,1-1.83,1.83h-3.49a1.83,1.83,0,0,1-1.83-1.83V111.8A0,0,0,0,1,140.34,111.8Z"/><line class="cls-4" x1="137.35" y1="111.8" x2="149.75" y2="111.8"/><rect class="cls-4" x="140.34" y="134.48" width="7.16" height="4.56" rx="1.57" ry="1.57"/><path class="cls-3" d="M44.24,69.59v8.16H36.08V69.59a2,2,0,0,1,2-2h4.16A2,2,0,0,1,44.24,69.59Z"/><path class="cls-3" d="M133.39,69.59v8.16h-8.16V69.59a2,2,0,0,1,2-2h4.16A2,2,0,0,1,133.39,69.59Z"/><polygon class="cls-5" points="93.61 76.74 76.29 76.74 76.25 70.3 76.25 70.23 76.22 66.58 76.26 66.58 80.4 63.43 84.45 60.35 88.95 63.43 93.57 66.58 93.53 66.58 93.56 70.23 93.56 70.3 93.61 76.74"/><path class="cls-3" d="M41.66,60.35v7.22H38.08a2,2,0,0,0-2,2v.71H16.9V60.35Z"/><path class="cls-6" d="M41.58,60.35s4.58-8.8-3-12.38c-2.71-1.28-6.3-2.86-9.37-7.44h.07C26.2,45.11,22.61,46.69,19.9,48c-7.58,3.58-3,12.38-3,12.38"/><line class="cls-6" x1="29.28" y1="40.53" x2="29.28" y2="36.45"/><path class="cls-3" d="M152.75,60.35V70.3H133.39v-.71a2,2,0,0,0-2-2H128V60.35Z"/><path class="cls-6" d="M152.68,60.35s4.58-8.8-3-12.38c-2.71-1.28-6.3-2.86-9.37-7.44h.07c-3.08,4.58-6.67,6.16-9.37,7.44-7.58,3.58-3,12.38-3,12.38"/><line class="cls-6" x1="140.38" y1="40.53" x2="140.38" y2="36.45"/><polygon class="cls-6" points="103.19 52.7 103.19 63.43 88.95 63.43 84.45 60.35 80.4 63.43 65.99 63.43 65.99 52.7 103.19 52.7"/><polygon class="cls-6" points="103.19 52.48 65.99 52.48 60.98 45.68 108.2 45.68 103.19 52.48"/><polyline class="cls-6" points="103.19 63.43 108.21 70.23 93.56 70.23"/><polyline class="cls-6" points="76.25 70.23 60.98 70.23 65.99 63.43"/><rect class="cls-6" x="65.99" y="40.53" width="37.21" height="5.15"/><path class="cls-6" d="M66,40.53S57,25.86,78.44,19.21"/><path class="cls-6" d="M103.48,40.26s9-14.67-12.45-21.32"/><rect class="cls-6" x="78.44" y="13.48" width="12.59" height="5.72"/><path class="cls-6" d="M84.66,4.68h0a3.51,3.51,0,0,1,3.51,3.51v5.3a0,0,0,0,1,0,0h-7a0,0,0,0,1,0,0V8.19a3.51,3.51,0,0,1,3.51-3.51Z"/></g></svg>