<svg id="chandigarh" xmlns="http://www.w3.org/2000/svg" viewBox="0 0 200 150.28"><defs><style>.cls-1{fill:#c1ff55;}.cls-2{fill:#3dff00;}.cls-3{fill:none;stroke:#000;stroke-miterlimit:10;stroke-width:2px;}</style></defs><title>chandigarh</title><path class="cls-1" d="M130.25,42.57l-13.5-.25C105.93,52.87,97,56.63,90.17,57.19V81.07h30.39v65.12H55.43V81.07h30.4V57.13A20.08,20.08,0,0,1,72.5,49.82L65.75,23.07s-2.33-7.75,4-4.75l8.75,6.5s8,5.25,9.75-3.25A96.24,96.24,0,0,1,91,10.32s1.75-6.67,5.83-2.17c0,0,2.92-5,5.5,0,0,0,3.5-5.08,5.67.08V32.57s3,7.25,9.25,0a14.15,14.15,0,0,1,8.75.75C138.24,38,130.25,42.57,130.25,42.57Z"/><path class="cls-2" d="M139.15,39.69l-13.5-.25C114.83,50,105.95,53.75,99.07,54.31V78.19h30.39v65.12H64.33V78.19h30.4V54.25A20.08,20.08,0,0,1,81.4,46.94L74.65,20.19s-2.33-7.75,4-4.75l8.75,6.5s8,5.25,9.75-3.25A96.24,96.24,0,0,1,99.9,7.44s1.75-6.67,5.83-2.17c0,0,2.92-5,5.5,0,0,0,3.5-5.08,5.67.08V29.69s3,7.25,9.25,0a14.15,14.15,0,0,1,8.75.75C147.14,35.11,139.15,39.69,139.15,39.69Z"/><path class="cls-3" d="M111.95,9.92V32.17s3,7.25,9.25,0a14.15,14.15,0,0,1,8.75.75c12.24,4.67,4.25,9.25,4.25,9.25l-13.5-.25c-29.25,28.5-44.25,7.5-44.25,7.5L69.7,22.67s-2.33-7.75,4-4.75l8.75,6.5s8,5.25,9.75-3.25A96.24,96.24,0,0,1,94.95,9.92s1.75-6.67,5.83-2.17c0,0,2.92-5,5.5,0,0,0,3.5-5.08,5.67.08Z"/><line class="cls-3" x1="100.78" y1="7.75" x2="100.78" y2="13.5"/><line class="cls-3" x1="106.28" y1="7.75" x2="106.28" y2="13.08"/><rect class="cls-3" x="87.2" y="129" width="9.42" height="16.79"/><rect class="cls-3" x="89.78" y="56.73" width="4.34" height="72.27"/><polygon class="cls-3" points="124.51 80.67 124.51 145.79 59.38 145.79 59.38 80.67 89.78 80.67 89.78 129 94.12 129 94.12 80.67 124.51 80.67"/><line class="cls-3" x1="96.32" y1="17.92" x2="98.95" y2="17.92"/><line class="cls-3" x1="104.97" y1="17.92" x2="107.6" y2="17.92"/><line class="cls-3" x1="101.71" y1="22.42" x2="104.33" y2="22.42"/><line class="cls-3" x1="96.32" y1="26.79" x2="98.95" y2="26.79"/><line class="cls-3" x1="104.97" y1="26.79" x2="107.6" y2="26.79"/><line class="cls-3" x1="75.47" y1="28.17" x2="78.1" y2="28.17"/></svg>