<svg xmlns="http://www.w3.org/2000/svg" viewBox="0 0 200 154"><defs><style>.cls-1{fill:#14ccbd;}.cls-2{fill:#ffd833;}.cls-3{fill:none;stroke:#000;stroke-linecap:round;stroke-miterlimit:10;stroke-width:2px;}</style></defs><title>icons</title><g id="gateway"><line class="cls-1" x1="64.51" y1="19.58" x2="64.51" y2="13.21"/><path class="cls-1" d="M185.68,80.58l-3.83,8.5h-4.33v62.16H17.68V89.08H13.35l-3.83-8.5h8.16V65.74H14.51v-8.5H57.35V45.58h3.33V23.41a3.83,3.83,0,1,1,7.67,0V37.33h58.5V23.41a3.83,3.83,0,0,1,7.67,0V45.58h3.33V57.24h42.83v8.5h-3.16V80.58Z"/><line class="cls-1" x1="130.68" y1="19.58" x2="130.68" y2="13.21"/><line class="cls-2" x1="74.97" y1="16.39" x2="74.97" y2="10.02"/><path class="cls-2" d="M196.13,77.4l-3.83,8.5H188v62.16H28.13V85.9H23.8L20,77.4h8.16V62.56H25v-8.5H67.8V42.4h3.33V20.23a3.83,3.83,0,1,1,7.67,0V34.15h58.5V20.23a3.83,3.83,0,0,1,7.67,0V42.4h3.33V54.06h42.83v8.5H188V77.4Z"/><line class="cls-2" x1="141.14" y1="16.39" x2="141.14" y2="10.02"/><rect class="cls-3" x="61.6" y="37.67" width="14.33" height="105.67"/><path class="cls-3" d="M68.76,11.67h0A3.83,3.83,0,0,1,72.6,15.5V37.67a0,0,0,0,1,0,0H64.93a0,0,0,0,1,0,0V15.5A3.83,3.83,0,0,1,68.76,11.67Z"/><line class="cls-3" x1="68.76" y1="11.67" x2="68.76" y2="5.29"/><line class="cls-3" x1="64.93" y1="20.67" x2="72.6" y2="20.67"/><rect class="cls-3" x="18.76" y="49.33" width="42.83" height="8.5"/><polygon class="cls-3" points="17.59 81.17 61.59 81.17 61.59 72.67 13.76 72.67 17.59 81.17"/><line class="cls-3" x1="21.93" y1="57.83" x2="21.93" y2="72.67"/><polyline class="cls-3" points="21.93 81.17 21.93 143.33 61.59 143.33"/><line class="cls-3" x1="21.93" y1="143.33" x2="9.51" y2="143.33"/><polyline class="cls-3" points="61.59 57.83 75.93 57.83 127.76 57.83"/><polyline class="cls-3" points="61.59 72.67 75.93 72.67 127.76 72.67"/><line class="cls-3" x1="61.6" y1="81.17" x2="75.93" y2="81.17"/><rect class="cls-3" x="32.01" y="109.17" width="23" height="34.17"/><path class="cls-3" d="M43.34,114.42h0A5.67,5.67,0,0,1,49,120.08v23.25a0,0,0,0,1,0,0H37.68a0,0,0,0,1,0,0V120.08a5.67,5.67,0,0,1,5.67-5.67Z"/><path class="cls-3" d="M32,109.17s.63-12.5,11.5-16.88"/><path class="cls-3" d="M55,109.17s-.62-12.5-11.5-16.88"/><rect class="cls-3" x="127.76" y="37.67" width="14.33" height="105.67" transform="translate(269.86 181) rotate(-180)"/><path class="cls-3" d="M131.1,11.67h7.67a0,0,0,0,1,0,0V33.83a3.83,3.83,0,0,1-3.83,3.83h0a3.83,3.83,0,0,1-3.83-3.83V11.67a0,0,0,0,1,0,0Z" transform="translate(269.86 49.33) rotate(-180)"/><line class="cls-3" x1="134.93" y1="11.67" x2="134.93" y2="5.29"/><line class="cls-3" x1="138.76" y1="20.67" x2="131.1" y2="20.67"/><rect class="cls-3" x="142.1" y="49.33" width="42.83" height="8.5" transform="translate(327.02 107.17) rotate(-180)"/><polygon class="cls-3" points="186.09 81.17 142.09 81.17 142.09 72.67 189.93 72.67 186.09 81.17"/><line class="cls-3" x1="181.76" y1="57.83" x2="181.76" y2="72.67"/><polyline class="cls-3" points="181.76 81.17 181.76 143.33 142.09 143.33"/><line class="cls-3" x1="181.76" y1="143.33" x2="194.18" y2="143.33"/><line class="cls-3" x1="142.1" y1="57.83" x2="127.76" y2="57.83"/><line class="cls-3" x1="142.1" y1="72.67" x2="127.76" y2="72.67"/><line class="cls-3" x1="142.1" y1="81.17" x2="127.76" y2="81.17"/><rect class="cls-3" x="148.68" y="109.17" width="23" height="34.17" transform="translate(320.36 252.5) rotate(-180)"/><path class="cls-3" d="M154.68,114.42H166a0,0,0,0,1,0,0v23.25a5.67,5.67,0,0,1-5.67,5.67h0a5.67,5.67,0,0,1-5.67-5.67V114.42A0,0,0,0,1,154.68,114.42Z" transform="translate(320.69 257.75) rotate(-180)"/><path class="cls-3" d="M171.68,109.17s-.62-12.5-11.5-16.88"/><path class="cls-3" d="M148.68,109.17s.63-12.5,11.5-16.88"/><line class="cls-3" x1="75.93" y1="37.67" x2="127.76" y2="37.67"/><line class="cls-3" x1="72.6" y1="29.42" x2="131.1" y2="29.42"/><line class="cls-3" x1="75.93" y1="143.33" x2="127.76" y2="143.33"/><line class="cls-3" x1="85.01" y1="57.83" x2="85.01" y2="72.67"/><line class="cls-3" x1="93.64" y1="57.83" x2="93.64" y2="72.67"/><line class="cls-3" x1="102.01" y1="72.67" x2="102.01" y2="57.83"/><line class="cls-3" x1="110.76" y1="57.83" x2="110.76" y2="72.67"/><line class="cls-3" x1="119.64" y1="57.83" x2="119.64" y2="72.67"/><path class="cls-3" d="M102.14,83.29h0c-7.37,7.37-20,9-20,20v40h40v-40C122.14,92.25,110.26,91.42,102.14,83.29Z"/></g></svg>