<svg xmlns="http://www.w3.org/2000/svg" viewBox="0 0 200 152"><defs><style>.cls-1{fill:#a8a8a8;}.cls-2{fill:#ffff64;}.cls-3,.cls-4{fill:none;stroke:#212121;stroke-linecap:round;stroke-width:2px;}.cls-3{stroke-miterlimit:10;}.cls-4{stroke-linejoin:bevel;}</style></defs><title>icons</title><g id="jhultaminar"><g id="_Group_" data-name="&lt;Group&gt;"><path class="cls-1" d="M189.9,97.71V103a1.22,1.22,0,0,1-1.22,1.22H187.4v43.58H12.64V104.24H11.36A1.22,1.22,0,0,1,10.14,103V97.71a1.22,1.22,0,0,1,1.22-1.22h1.28V92.27a1,1,0,0,1,1-1h7.08s-1.5-5.83,5.66-8.83a94.4,94.4,0,0,0,14.1-7.74A94.12,94.12,0,0,0,54.6,82.41c7.17,3,5.67,8.83,5.67,8.83h7.58V81H66.48a1.21,1.21,0,0,1-1.21-1.21V75.07a1.21,1.21,0,0,1,1.21-1.21h1.37V56.16H66.48A1.21,1.21,0,0,1,65.27,55V50.2A1.21,1.21,0,0,1,66.48,49h4.37V35.24H69.06A1.21,1.21,0,0,1,67.85,34V31.28a1.21,1.21,0,0,1,1.21-1.21h1.79V22.82H69.06a1.21,1.21,0,0,1-1.21-1.2V18.87a1.21,1.21,0,0,1,1.21-1.21h1.79V13.32A3.16,3.16,0,0,1,74,10.16h1a3.16,3.16,0,0,1,3.17,3.16v4.34H80a1.21,1.21,0,0,1,1.21,1.21v2.74A1.21,1.21,0,0,1,80,22.82H78.19v7.25H80a1.21,1.21,0,0,1,1.21,1.21V34A1.21,1.21,0,0,1,80,35.24H78.19V49h4.37a1.21,1.21,0,0,1,1.21,1.21V55a1.21,1.21,0,0,1-1.21,1.21H81.19v17.7h1.37a1.19,1.19,0,0,1,.56.14,15.47,15.47,0,0,1,6.35-7.33c4.84-2.83,8.47-2.91,10.55-6.41,2.07,3.5,5.7,3.58,10.54,6.41A15.52,15.52,0,0,1,117,74a1.19,1.19,0,0,1,.47-.09h1.37V56.16h-1.37A1.21,1.21,0,0,1,116.27,55V50.2A1.21,1.21,0,0,1,117.48,49h4.37V35.24h-1.79A1.21,1.21,0,0,1,118.85,34V31.28a1.21,1.21,0,0,1,1.21-1.21h1.79V22.82h-1.79a1.21,1.21,0,0,1-1.21-1.2V18.87a1.21,1.21,0,0,1,1.21-1.21h1.79V13.32A3.16,3.16,0,0,1,125,10.16h1a3.16,3.16,0,0,1,3.17,3.16v4.34H131a1.21,1.21,0,0,1,1.21,1.21v2.74A1.21,1.21,0,0,1,131,22.82h-1.79v7.25H131a1.21,1.21,0,0,1,1.21,1.21V34A1.21,1.21,0,0,1,131,35.24h-1.79V49h4.37a1.21,1.21,0,0,1,1.21,1.21V55a1.21,1.21,0,0,1-1.21,1.21h-1.37v17.7h1.37a1.21,1.21,0,0,1,1.21,1.21v4.75A1.21,1.21,0,0,1,133.56,81h-1.37V91.24h7.58s-1.5-5.83,5.67-8.83a94.67,94.67,0,0,0,14.09-7.74,94.67,94.67,0,0,0,14.09,7.74c7.17,3,5.67,8.83,5.67,8.83h7.07a1,1,0,0,1,1,1v4.22h1.28A1.22,1.22,0,0,1,189.9,97.71Z"/></g><g id="_Group_2" data-name="&lt;Group&gt;"><path class="cls-2" d="M185.9,97.77v5.31a1.22,1.22,0,0,1-1.22,1.22H183.4v43.58H8.64V104.3H7.36a1.22,1.22,0,0,1-1.22-1.22V97.77a1.22,1.22,0,0,1,1.22-1.22H8.64V92.33a1,1,0,0,1,1-1h7.08s-1.5-5.83,5.66-8.83a94.4,94.4,0,0,0,14.1-7.74A94.12,94.12,0,0,0,50.6,82.47c7.17,3,5.67,8.83,5.67,8.83h7.58V81.09H62.48a1.21,1.21,0,0,1-1.21-1.21V75.13a1.21,1.21,0,0,1,1.21-1.21h1.37V56.22H62.48A1.21,1.21,0,0,1,61.27,55V50.26a1.21,1.21,0,0,1,1.21-1.21h4.37V35.3H65.06a1.21,1.21,0,0,1-1.21-1.21V31.34a1.21,1.21,0,0,1,1.21-1.21h1.79V22.88H65.06a1.21,1.21,0,0,1-1.21-1.2V18.93a1.21,1.21,0,0,1,1.21-1.21h1.79V13.38A3.16,3.16,0,0,1,70,10.22h1a3.16,3.16,0,0,1,3.17,3.16v4.34H76a1.21,1.21,0,0,1,1.21,1.21v2.74A1.21,1.21,0,0,1,76,22.88H74.19v7.25H76a1.21,1.21,0,0,1,1.21,1.21v2.75A1.21,1.21,0,0,1,76,35.3H74.19V49.05h4.37a1.21,1.21,0,0,1,1.21,1.21V55a1.21,1.21,0,0,1-1.21,1.21H77.19v17.7h1.37a1.19,1.19,0,0,1,.56.14,15.47,15.47,0,0,1,6.35-7.33c4.84-2.83,8.47-2.91,10.55-6.41,2.07,3.5,5.7,3.58,10.54,6.41A15.52,15.52,0,0,1,113,74a1.19,1.19,0,0,1,.47-.09h1.37V56.22h-1.37A1.21,1.21,0,0,1,112.27,55V50.26a1.21,1.21,0,0,1,1.21-1.21h4.37V35.3h-1.79a1.21,1.21,0,0,1-1.21-1.21V31.34a1.21,1.21,0,0,1,1.21-1.21h1.79V22.88h-1.79a1.21,1.21,0,0,1-1.21-1.2V18.93a1.21,1.21,0,0,1,1.21-1.21h1.79V13.38A3.16,3.16,0,0,1,121,10.22h1a3.16,3.16,0,0,1,3.17,3.16v4.34H127a1.21,1.21,0,0,1,1.21,1.21v2.74A1.21,1.21,0,0,1,127,22.88h-1.79v7.25H127a1.21,1.21,0,0,1,1.21,1.21v2.75A1.21,1.21,0,0,1,127,35.3h-1.79V49.05h4.37a1.21,1.21,0,0,1,1.21,1.21V55a1.21,1.21,0,0,1-1.21,1.21h-1.37v17.7h1.37a1.21,1.21,0,0,1,1.21,1.21v4.75a1.21,1.21,0,0,1-1.21,1.21h-1.37V91.3h7.58s-1.5-5.83,5.67-8.83a94.67,94.67,0,0,0,14.09-7.74,94.67,94.67,0,0,0,14.09,7.74c7.17,3,5.67,8.83,5.67,8.83h7.07a1,1,0,0,1,1,1v4.22h1.28A1.22,1.22,0,0,1,185.9,97.77Z"/></g><g id="_Group_3" data-name="&lt;Group&gt;"><line class="cls-3" x1="69.17" y1="71.89" x2="69.17" y2="53.8"/><line class="cls-3" x1="82.8" y1="53.8" x2="82.8" y2="71.89"/><line class="cls-3" x1="69.17" y1="89.64" x2="69.17" y2="79.21"/><polyline class="cls-3" points="82.8 79.21 82.8 85.04 82.8 92.33 82.8 121.06 82.8 147.44 69.17 147.44"/><path class="cls-3" d="M72.24,14.47V10a3.23,3.23,0,0,1,3.24-3.23h1A3.23,3.23,0,0,1,79.74,10v4.43"/><line class="cls-3" x1="72.24" y1="27.15" x2="72.24" y2="19.75"/><line class="cls-3" x1="79.74" y1="19.75" x2="79.74" y2="27.15"/><line class="cls-3" x1="72.24" y1="46.48" x2="72.24" y2="32.43"/><line class="cls-3" x1="79.74" y1="32.43" x2="79.74" y2="46.48"/><path class="cls-3" d="M79.74,14.47h1.83a1.23,1.23,0,0,1,1.24,1.24v2.8a1.23,1.23,0,0,1-1.24,1.24H70.41a1.23,1.23,0,0,1-1.24-1.23V15.71a1.23,1.23,0,0,1,1.24-1.24h9.33Z"/><path class="cls-3" d="M79.74,27.15h1.83a1.23,1.23,0,0,1,1.24,1.24V31.2a1.23,1.23,0,0,1-1.24,1.24H70.41a1.23,1.23,0,0,1-1.24-1.24V28.39a1.23,1.23,0,0,1,1.24-1.24h9.33Z"/><path class="cls-3" d="M79.74,46.48H84.2a1.23,1.23,0,0,1,1.24,1.24v4.85A1.23,1.23,0,0,1,84.2,53.8H67.77a1.23,1.23,0,0,1-1.24-1.24V47.72a1.23,1.23,0,0,1,1.24-1.24h12Z"/><path class="cls-3" d="M84.77,72a1.22,1.22,0,0,1,.66,1.09V78a1.23,1.23,0,0,1-1.24,1.24H67.77A1.23,1.23,0,0,1,66.54,78V73.12a1.23,1.23,0,0,1,1.24-1.24H84.2A1.22,1.22,0,0,1,84.77,72Z"/><line class="cls-3" x1="75.99" y1="3.45" x2="75.99" y2="6.81"/><line class="cls-3" x1="121.27" y1="71.89" x2="121.27" y2="53.8"/><line class="cls-3" x1="134.9" y1="53.8" x2="134.9" y2="71.89"/><polyline class="cls-3" points="134.9 147.44 121.27 147.44 121.27 120.96 121.27 92.33 121.27 85.04 121.27 79.21"/><line class="cls-3" x1="134.9" y1="79.21" x2="134.9" y2="89.64"/><path class="cls-3" d="M124.34,14.47V10a3.23,3.23,0,0,1,3.24-3.23h1A3.23,3.23,0,0,1,131.84,10v4.43"/><line class="cls-3" x1="124.34" y1="27.15" x2="124.34" y2="19.75"/><line class="cls-3" x1="131.84" y1="19.75" x2="131.84" y2="27.15"/><line class="cls-3" x1="124.34" y1="46.48" x2="124.34" y2="32.43"/><line class="cls-3" x1="131.84" y1="32.43" x2="131.84" y2="46.48"/><path class="cls-3" d="M131.84,14.47h1.83a1.23,1.23,0,0,1,1.24,1.24v2.8a1.23,1.23,0,0,1-1.24,1.24H122.51a1.23,1.23,0,0,1-1.24-1.23V15.71a1.23,1.23,0,0,1,1.24-1.24h9.33Z"/><path class="cls-3" d="M131.84,27.15h1.83a1.23,1.23,0,0,1,1.24,1.24V31.2a1.23,1.23,0,0,1-1.24,1.24H122.51a1.23,1.23,0,0,1-1.24-1.24V28.39a1.23,1.23,0,0,1,1.24-1.24h9.33Z"/><path class="cls-3" d="M131.84,46.48h4.46a1.23,1.23,0,0,1,1.24,1.24v4.85a1.23,1.23,0,0,1-1.24,1.24H119.87a1.23,1.23,0,0,1-1.24-1.24V47.72a1.23,1.23,0,0,1,1.24-1.24h12Z"/><path class="cls-3" d="M134.9,71.89h1.4a1.23,1.23,0,0,1,1.24,1.24V78a1.23,1.23,0,0,1-1.24,1.24H119.87A1.23,1.23,0,0,1,118.64,78V73.12a1.24,1.24,0,0,1,.76-1.14,1.22,1.22,0,0,1,.48-.09h15Z"/><line class="cls-3" x1="128.09" y1="3.45" x2="128.09" y2="6.81"/><polyline class="cls-3" points="85.44 77.97 90.03 77.97 97.95 77.97 105.61 77.97 113.66 77.97 118.64 77.97"/><polyline class="cls-3" points="82.8 85.04 90.03 85.04 97.95 85.04 105.61 85.04 113.66 85.04 121.27 85.04"/><line class="cls-3" x1="90.03" y1="77.98" x2="90.03" y2="85.04"/><line class="cls-3" x1="97.95" y1="77.98" x2="97.95" y2="85.04"/><polyline class="cls-3" points="105.61 77.97 105.61 85.04 105.61 85.56"/><line class="cls-3" x1="113.66" y1="77.98" x2="113.66" y2="85.04"/><line class="cls-3" x1="82.8" y1="92.33" x2="121.27" y2="92.33"/><line class="cls-3" x1="82.8" y1="147.44" x2="121.27" y2="147.44"/><line class="cls-3" x1="139.39" y1="89.64" x2="139.39" y2="95"/><line class="cls-3" x1="63.73" y1="89.64" x2="63.73" y2="95"/><line class="cls-3" x1="134.9" y1="102.92" x2="134.9" y2="95"/><path class="cls-3" d="M191.3,95h1.31a1.25,1.25,0,0,1,1.25,1.25v5.42a1.25,1.25,0,0,1-1.25,1.25H191.3"/><polygon class="cls-3" points="191.3 102.92 191.3 147.44 175.51 147.44 149.97 147.44 134.9 147.44 134.9 102.92 191.3 102.92"/><path class="cls-3" d="M191.3,95H134.9V89.64h55.34a1.06,1.06,0,0,1,1.06,1.05Z"/><circle class="cls-3" cx="149.03" cy="111.35" r="2.55"/><circle class="cls-3" cx="176.35" cy="111.35" r="2.55"/><line class="cls-3" x1="147.11" y1="89.64" x2="147.11" y2="95"/><line class="cls-3" x1="154.84" y1="89.64" x2="154.84" y2="95"/><line class="cls-3" x1="162.57" y1="89.64" x2="162.57" y2="95"/><line class="cls-3" x1="170.29" y1="89.64" x2="170.29" y2="95"/><line class="cls-3" x1="178.02" y1="89.64" x2="178.02" y2="95"/><line class="cls-3" x1="186.32" y1="89.64" x2="186.32" y2="95"/><path class="cls-3" d="M141.88,128.54a2.73,2.73,0,0,0-2.73,2.73v5.62h5.46v-5.62A2.73,2.73,0,0,0,141.88,128.54Z"/><path class="cls-3" d="M183.76,128.54a2.73,2.73,0,0,0-2.73,2.73v5.62h5.46v-5.62A2.73,2.73,0,0,0,183.76,128.54Z"/><path class="cls-3" d="M175.51,147.44l.27-17a19.19,19.19,0,0,0-4.48-12.86,24.06,24.06,0,0,0-8.19-6.23,20,20,0,0,0-6.78,3.89A19.28,19.28,0,0,0,150,129.76v17.68"/><path class="cls-4" d="M183,89.64s1.53-6-5.79-9a96.71,96.71,0,0,1-14.39-7.91l-.27-.18h.53l-.27.18a96.71,96.71,0,0,1-14.39,7.91c-7.32,3.06-5.79,9-5.79,9"/><polyline class="cls-4" points="162.83 72.71 162.83 72.53 162.83 68.62"/><line class="cls-3" x1="69.17" y1="102.92" x2="69.17" y2="95"/><path class="cls-3" d="M12.77,95H11.47a1.25,1.25,0,0,0-1.25,1.25v5.42a1.25,1.25,0,0,0,1.25,1.25h1.31"/><polygon class="cls-3" points="12.77 102.92 12.77 147.44 28.57 147.44 54.11 147.44 69.17 147.44 69.17 102.92 12.77 102.92"/><path class="cls-3" d="M12.77,95h56.4V89.64H13.83a1.05,1.05,0,0,0-1.05,1.05Z"/><circle class="cls-3" cx="55.05" cy="111.35" r="2.55"/><circle class="cls-3" cx="27.73" cy="111.35" r="2.55"/><line class="cls-3" x1="56.96" y1="89.64" x2="56.96" y2="95"/><line class="cls-3" x1="49.23" y1="89.64" x2="49.23" y2="95"/><line class="cls-3" x1="41.51" y1="89.64" x2="41.51" y2="95"/><line class="cls-3" x1="33.78" y1="89.64" x2="33.78" y2="95"/><line class="cls-3" x1="26.05" y1="89.64" x2="26.05" y2="95"/><line class="cls-3" x1="17.76" y1="89.64" x2="17.76" y2="95"/><path class="cls-3" d="M62.2,128.54a2.72,2.72,0,0,1,2.72,2.73v5.62H59.47v-5.62A2.73,2.73,0,0,1,62.2,128.54Z"/><path class="cls-3" d="M20.31,128.54A2.72,2.72,0,0,1,23,131.27v5.62H17.59v-5.62A2.73,2.73,0,0,1,20.31,128.54Z"/><path class="cls-3" d="M28.57,147.44l-.28-17a19.29,19.29,0,0,1,4.48-12.86,24.15,24.15,0,0,1,8.2-6.23,20,20,0,0,1,6.78,3.89,19.28,19.28,0,0,1,6.34,14.52v17.68"/><path class="cls-4" d="M21.06,89.64s-1.53-6,5.78-9a96.44,96.44,0,0,0,14.4-7.91l.27-.18H41l.27.18a96.15,96.15,0,0,0,14.39,7.91c7.32,3.06,5.79,9,5.79,9"/><polyline class="cls-4" points="41.24 72.71 41.24 72.53 41.24 68.62"/><path class="cls-3" d="M119.39,72a15.85,15.85,0,0,0-6.59-7.44c-4.94-2.89-8.65-3-10.77-6.55-2.12,3.58-5.83,3.66-10.78,6.55A15.8,15.8,0,0,0,84.77,72l-.06.18"/><line class="cls-3" x1="102.04" y1="57.99" x2="102.04" y2="53.74"/><path class="cls-4" d="M82.8,121.05S87.51,106,102,101.13"/><path class="cls-4" d="M121.3,121.05l0-.09c-.43-1.3-5.36-15.2-19.23-19.83"/></g></g></svg>